<svg width="1080" height="1080" viewBox="0 0 1080 1080" xmlns="http://www.w3.org/2000/svg">
  <defs>
    <linearGradient id="bgGrad" x1="0%" y1="0%" x2="100%" y2="100%">
      <stop offset="0%" stop-color="#080a0f" />
      <stop offset="100%" stop-color="#1c2535" />
    </linearGradient>
    <radialGradient id="glow" cx="80%" cy="20%" r="60%">
      <stop offset="0%" stop-color="#f97316" stop-opacity="0.15" />
      <stop offset="100%" stop-color="#080a0f" stop-opacity="0" />
    </radialGradient>
  </defs>
  <rect width="1080" height="1080" fill="url(#bgGrad)"/>
  <rect width="1080" height="1080" fill="url(#glow)"/>
  
  <text x="100" y="340" font-family="Inter, system-ui, sans-serif" font-weight="900" font-size="80" fill="#ffffff" letter-spacing="-2px">
    <tspan x="100" dy="0">Sua clínica perde</tspan>
    <tspan x="100" dy="100">pacientes toda vez</tspan>
    <tspan x="100" dy="100">que a <tspan fill="#f97316">recepção fecha?</tspan></tspan>
  </text>
  
  <text x="100" y="700" font-family="Inter, system-ui, sans-serif" font-weight="500" font-size="40" fill="#a8b3cc">
    <tspan x="100" dy="0">40% das mensagens no WhatsApp</tspan>
    <tspan x="100" dy="55">chegam após as 18h. Um agente de IA</tspan>
    <tspan x="100" dy="55">atende, qualifica e agenda 24/7.</tspan>
  </text>

  <!-- Footer Logo -->
  <g transform="translate(100, 930) scale(0.6)">
    <polygon points="60,15 98.97,37.5 98.97,82.5 60,105 21.03,82.5 21.03,37.5" fill="none" stroke="#f97316" stroke-width="2.5" stroke-linejoin="round"/>
    <path d="M 40.52 48.75 L 79.48 48.75 L 60 82.5 Z M 40.52 48.75 L 60 15 M 40.52 48.75 L 21.03 37.5 M 40.52 48.75 L 21.03 82.5 M 79.48 48.75 L 60 15 M 79.48 48.75 L 98.97 37.5 M 79.48 48.75 L 98.97 82.5 M 60 82.5 L 98.97 82.5 M 60 82.5 L 60 105 M 60 82.5 L 21.03 82.5" fill="none" stroke="#f97316" stroke-width="1.5" stroke-opacity="0.8" stroke-linejoin="round"/>
    <path d="M 40 80 V 40 H 54 L 70 68 V 40 H 80 V 80 H 66 L 50 52 V 80 Z" fill="#ffffff"/>
    <text x="130" y="78" font-family="Inter, system-ui, sans-serif" font-weight="900" font-size="52" letter-spacing="-1px" fill="#ffffff">NAROSCO</text>
  </g>
</svg>
